<mxfile host="app.diagrams.net" modified="2021-05-25T00:47:12.539Z" agent="5.0 (Windows)" etag="AN1RLe91IdnXaEpQdolG" version="14.7.0" type="github">
  <diagram id="QwKQXVT4t3e9Sc0ZDkFQ" name="Page-1">
    <mxGraphModel dx="1422" dy="751" grid="1" gridSize="10" guides="1" tooltips="1" connect="1" arrows="1" fold="1" page="1" pageScale="1" pageWidth="827" pageHeight="583" background="#F4F1DE" math="0" shadow="0">
      <root>
        <mxCell id="0" />
        <mxCell id="1" parent="0" />
        <mxCell id="XKVMX29ZRd29AsLRONiJ-19" style="edgeStyle=orthogonalEdgeStyle;rounded=0;orthogonalLoop=1;jettySize=auto;html=1;exitX=0.5;exitY=1;exitDx=0;exitDy=0;entryX=0.5;entryY=0;entryDx=0;entryDy=0;strokeColor=#E07A5F;fontColor=#393C56;labelBackgroundColor=#F4F1DE;" parent="1" source="XKVMX29ZRd29AsLRONiJ-1" target="XKVMX29ZRd29AsLRONiJ-3" edge="1">
          <mxGeometry relative="1" as="geometry" />
        </mxCell>
        <mxCell id="XKVMX29ZRd29AsLRONiJ-1" value="Calcula fecha entrega" style="rounded=1;whiteSpace=wrap;html=1;fillColor=#F2CC8F;strokeColor=#E07A5F;fontColor=#393C56;" parent="1" vertex="1">
          <mxGeometry x="407" y="80" width="140" height="20" as="geometry" />
        </mxCell>
        <mxCell id="XKVMX29ZRd29AsLRONiJ-3" value="d =! sabado ^ d =! domingo " style="ellipse;whiteSpace=wrap;html=1;fillColor=#F2CC8F;strokeColor=#E07A5F;fontColor=#393C56;" parent="1" vertex="1">
          <mxGeometry x="382.5" y="130" width="189" height="40" as="geometry" />
        </mxCell>
        <mxCell id="XKVMX29ZRd29AsLRONiJ-4" value="&lt;div&gt;d: Dia actual&lt;/div&gt;&lt;div&gt;x: dia de entrega&lt;br&gt;&lt;/div&gt;" style="rounded=0;whiteSpace=wrap;html=1;fillColor=#F2CC8F;strokeColor=#E07A5F;fontColor=#393C56;" parent="1" vertex="1">
          <mxGeometry x="629.5" y="100" width="110" height="40" as="geometry" />
        </mxCell>
        <mxCell id="XKVMX29ZRd29AsLRONiJ-5" value="" style="endArrow=classic;html=1;exitX=0;exitY=1;exitDx=0;exitDy=0;entryX=0.5;entryY=0;entryDx=0;entryDy=0;strokeColor=#E07A5F;fontColor=#393C56;labelBackgroundColor=#F4F1DE;" parent="1" source="XKVMX29ZRd29AsLRONiJ-3" target="XKVMX29ZRd29AsLRONiJ-8" edge="1">
          <mxGeometry width="50" height="50" relative="1" as="geometry">
            <mxPoint x="539.5" y="350" as="sourcePoint" />
            <mxPoint x="369.5" y="200" as="targetPoint" />
          </mxGeometry>
        </mxCell>
        <mxCell id="XKVMX29ZRd29AsLRONiJ-6" value="" style="endArrow=classic;html=1;exitX=1;exitY=1;exitDx=0;exitDy=0;entryX=0;entryY=0;entryDx=0;entryDy=0;strokeColor=#E07A5F;fontColor=#393C56;labelBackgroundColor=#F4F1DE;" parent="1" source="XKVMX29ZRd29AsLRONiJ-3" target="XKVMX29ZRd29AsLRONiJ-7" edge="1">
          <mxGeometry width="50" height="50" relative="1" as="geometry">
            <mxPoint x="420.2965726338175" y="174.16709961759625" as="sourcePoint" />
            <mxPoint x="579.5" y="200" as="targetPoint" />
          </mxGeometry>
        </mxCell>
        <mxCell id="XKVMX29ZRd29AsLRONiJ-7" value="No se trabaja los fines de semana y festivos" style="ellipse;whiteSpace=wrap;html=1;fillColor=#F2CC8F;strokeColor=#E07A5F;fontColor=#393C56;" parent="1" vertex="1">
          <mxGeometry x="619.5" y="185" width="110" height="80" as="geometry" />
        </mxCell>
        <mxCell id="XKVMX29ZRd29AsLRONiJ-8" value="d =! dia festivo" style="ellipse;whiteSpace=wrap;html=1;fillColor=#F2CC8F;strokeColor=#E07A5F;fontColor=#393C56;" parent="1" vertex="1">
          <mxGeometry x="279.5" y="210" width="120" height="30" as="geometry" />
        </mxCell>
        <mxCell id="XKVMX29ZRd29AsLRONiJ-9" value="" style="endArrow=classic;html=1;exitX=1;exitY=0.5;exitDx=0;exitDy=0;entryX=0;entryY=0.5;entryDx=0;entryDy=0;strokeColor=#E07A5F;fontColor=#393C56;labelBackgroundColor=#F4F1DE;" parent="1" source="XKVMX29ZRd29AsLRONiJ-8" target="XKVMX29ZRd29AsLRONiJ-7" edge="1">
          <mxGeometry width="50" height="50" relative="1" as="geometry">
            <mxPoint x="382.49657263381755" y="259.99709961759623" as="sourcePoint" />
            <mxPoint x="341.70000000000005" y="295.83" as="targetPoint" />
          </mxGeometry>
        </mxCell>
        <mxCell id="XKVMX29ZRd29AsLRONiJ-11" value="Verdadero" style="text;html=1;strokeColor=none;fillColor=none;align=center;verticalAlign=middle;whiteSpace=wrap;rounded=0;fontColor=#393C56;" parent="1" vertex="1">
          <mxGeometry x="299.5" y="160" width="60" height="20" as="geometry" />
        </mxCell>
        <mxCell id="XKVMX29ZRd29AsLRONiJ-12" value="Falso" style="text;html=1;strokeColor=none;fillColor=none;align=center;verticalAlign=middle;whiteSpace=wrap;rounded=0;fontColor=#393C56;" parent="1" vertex="1">
          <mxGeometry x="599.5" y="160" width="40" height="20" as="geometry" />
        </mxCell>
        <mxCell id="XKVMX29ZRd29AsLRONiJ-14" value="Falso" style="text;html=1;strokeColor=none;fillColor=none;align=center;verticalAlign=middle;whiteSpace=wrap;rounded=0;fontColor=#393C56;" parent="1" vertex="1">
          <mxGeometry x="489.5" y="200" width="40" height="20" as="geometry" />
        </mxCell>
        <mxCell id="XKVMX29ZRd29AsLRONiJ-15" value="Verdadero" style="text;html=1;strokeColor=none;fillColor=none;align=center;verticalAlign=middle;whiteSpace=wrap;rounded=0;fontColor=#393C56;" parent="1" vertex="1">
          <mxGeometry x="233" y="270" width="60" height="20" as="geometry" />
        </mxCell>
        <mxCell id="XKVMX29ZRd29AsLRONiJ-16" value="" style="endArrow=classic;html=1;exitX=0.5;exitY=1;exitDx=0;exitDy=0;entryX=0.5;entryY=0;entryDx=0;entryDy=0;strokeColor=#E07A5F;fontColor=#393C56;labelBackgroundColor=#F4F1DE;" parent="1" source="XKVMX29ZRd29AsLRONiJ-8" target="XKVMX29ZRd29AsLRONiJ-23" edge="1">
          <mxGeometry width="50" height="50" relative="1" as="geometry">
            <mxPoint x="279.49657263381755" y="299.99709961759623" as="sourcePoint" />
            <mxPoint x="232.94827586206884" y="284.655172413793" as="targetPoint" />
          </mxGeometry>
        </mxCell>
        <mxCell id="XKVMX29ZRd29AsLRONiJ-23" value="d + un dia = sabado" style="ellipse;whiteSpace=wrap;html=1;fillColor=#F2CC8F;strokeColor=#E07A5F;fontColor=#393C56;" parent="1" vertex="1">
          <mxGeometry x="270" y="290" width="140" height="30" as="geometry" />
        </mxCell>
        <mxCell id="XKVMX29ZRd29AsLRONiJ-25" value="" style="endArrow=classic;html=1;exitX=0;exitY=1;exitDx=0;exitDy=0;entryX=0.5;entryY=0;entryDx=0;entryDy=0;strokeColor=#E07A5F;fontColor=#393C56;labelBackgroundColor=#F4F1DE;" parent="1" source="XKVMX29ZRd29AsLRONiJ-23" target="XKVMX29ZRd29AsLRONiJ-26" edge="1">
          <mxGeometry width="50" height="50" relative="1" as="geometry">
            <mxPoint x="267.57359312880703" y="329.9966017177983" as="sourcePoint" />
            <mxPoint x="225" y="339" as="targetPoint" />
          </mxGeometry>
        </mxCell>
        <mxCell id="XKVMX29ZRd29AsLRONiJ-26" value="d + tres dias= festivo" style="ellipse;whiteSpace=wrap;html=1;fillColor=#F2CC8F;strokeColor=#E07A5F;fontColor=#393C56;" parent="1" vertex="1">
          <mxGeometry x="147.5" y="347.5" width="140" height="30" as="geometry" />
        </mxCell>
        <mxCell id="XKVMX29ZRd29AsLRONiJ-30" value="Verdadero" style="text;html=1;strokeColor=none;fillColor=none;align=center;verticalAlign=middle;whiteSpace=wrap;rounded=0;fontColor=#393C56;" parent="1" vertex="1">
          <mxGeometry x="190" y="300" width="60" height="20" as="geometry" />
        </mxCell>
        <mxCell id="XKVMX29ZRd29AsLRONiJ-31" value="d + cuatro dias" style="ellipse;whiteSpace=wrap;html=1;fillColor=#F2CC8F;strokeColor=#E07A5F;fontColor=#393C56;" parent="1" vertex="1">
          <mxGeometry x="50" y="400" width="140" height="30" as="geometry" />
        </mxCell>
        <mxCell id="XKVMX29ZRd29AsLRONiJ-32" value="" style="endArrow=classic;html=1;exitX=0;exitY=1;exitDx=0;exitDy=0;entryX=0.5;entryY=0;entryDx=0;entryDy=0;strokeColor=#E07A5F;fontColor=#393C56;labelBackgroundColor=#F4F1DE;" parent="1" source="XKVMX29ZRd29AsLRONiJ-26" target="XKVMX29ZRd29AsLRONiJ-31" edge="1">
          <mxGeometry width="50" height="50" relative="1" as="geometry">
            <mxPoint x="160.00252531694196" y="369.9966017177983" as="sourcePoint" />
            <mxPoint x="109.5" y="404.39" as="targetPoint" />
          </mxGeometry>
        </mxCell>
        <mxCell id="XKVMX29ZRd29AsLRONiJ-33" value="Verdadero" style="text;html=1;strokeColor=none;fillColor=none;align=center;verticalAlign=middle;whiteSpace=wrap;rounded=0;fontColor=#393C56;" parent="1" vertex="1">
          <mxGeometry x="60" y="360" width="60" height="20" as="geometry" />
        </mxCell>
        <mxCell id="XKVMX29ZRd29AsLRONiJ-34" value="d + tres dias" style="ellipse;whiteSpace=wrap;html=1;fillColor=#F2CC8F;strokeColor=#E07A5F;fontColor=#393C56;" parent="1" vertex="1">
          <mxGeometry x="230" y="400" width="140" height="30" as="geometry" />
        </mxCell>
        <mxCell id="XKVMX29ZRd29AsLRONiJ-35" value="" style="endArrow=classic;html=1;exitX=1;exitY=1;exitDx=0;exitDy=0;entryX=0.5;entryY=0;entryDx=0;entryDy=0;strokeColor=#E07A5F;fontColor=#393C56;labelBackgroundColor=#F4F1DE;" parent="1" source="XKVMX29ZRd29AsLRONiJ-26" target="XKVMX29ZRd29AsLRONiJ-34" edge="1">
          <mxGeometry width="50" height="50" relative="1" as="geometry">
            <mxPoint x="190.50252531694196" y="375.6066017177982" as="sourcePoint" />
            <mxPoint x="279" y="400" as="targetPoint" />
          </mxGeometry>
        </mxCell>
        <mxCell id="XKVMX29ZRd29AsLRONiJ-36" value="Falso" style="text;html=1;strokeColor=none;fillColor=none;align=center;verticalAlign=middle;whiteSpace=wrap;rounded=0;fontColor=#393C56;" parent="1" vertex="1">
          <mxGeometry x="310" y="365" width="60" height="20" as="geometry" />
        </mxCell>
        <mxCell id="XKVMX29ZRd29AsLRONiJ-37" value="d + un dia = festivo" style="ellipse;whiteSpace=wrap;html=1;fillColor=#F2CC8F;strokeColor=#E07A5F;fontColor=#393C56;" parent="1" vertex="1">
          <mxGeometry x="470" y="350" width="140" height="30" as="geometry" />
        </mxCell>
        <mxCell id="XKVMX29ZRd29AsLRONiJ-38" value="" style="endArrow=classic;html=1;exitX=1;exitY=1;exitDx=0;exitDy=0;entryX=0;entryY=0;entryDx=0;entryDy=0;strokeColor=#E07A5F;fontColor=#393C56;labelBackgroundColor=#F4F1DE;" parent="1" source="XKVMX29ZRd29AsLRONiJ-23" target="XKVMX29ZRd29AsLRONiJ-37" edge="1">
          <mxGeometry width="50" height="50" relative="1" as="geometry">
            <mxPoint x="290.50252531694196" y="315.6066017177983" as="sourcePoint" />
            <mxPoint x="240" y="350" as="targetPoint" />
          </mxGeometry>
        </mxCell>
        <mxCell id="XKVMX29ZRd29AsLRONiJ-39" value="Falso" style="text;html=1;strokeColor=none;fillColor=none;align=center;verticalAlign=middle;whiteSpace=wrap;rounded=0;fontColor=#393C56;" parent="1" vertex="1">
          <mxGeometry x="410" y="300" width="60" height="20" as="geometry" />
        </mxCell>
        <mxCell id="XKVMX29ZRd29AsLRONiJ-40" value="d+ un dia" style="ellipse;whiteSpace=wrap;html=1;fillColor=#F2CC8F;strokeColor=#E07A5F;fontColor=#393C56;" parent="1" vertex="1">
          <mxGeometry x="557.5" y="400" width="140" height="30" as="geometry" />
        </mxCell>
        <mxCell id="XKVMX29ZRd29AsLRONiJ-41" value="d + dos dias" style="ellipse;whiteSpace=wrap;html=1;fillColor=#F2CC8F;strokeColor=#E07A5F;fontColor=#393C56;" parent="1" vertex="1">
          <mxGeometry x="370" y="400" width="140" height="30" as="geometry" />
        </mxCell>
        <mxCell id="XKVMX29ZRd29AsLRONiJ-42" value="" style="endArrow=classic;html=1;exitX=1;exitY=1;exitDx=0;exitDy=0;entryX=0.5;entryY=0;entryDx=0;entryDy=0;strokeColor=#E07A5F;fontColor=#393C56;labelBackgroundColor=#F4F1DE;" parent="1" source="XKVMX29ZRd29AsLRONiJ-37" target="XKVMX29ZRd29AsLRONiJ-40" edge="1">
          <mxGeometry width="50" height="50" relative="1" as="geometry">
            <mxPoint x="709.9974746830583" y="352.8066017177982" as="sourcePoint" />
            <mxPoint x="850.5" y="387.2" as="targetPoint" />
          </mxGeometry>
        </mxCell>
        <mxCell id="XKVMX29ZRd29AsLRONiJ-43" value="" style="endArrow=classic;html=1;exitX=0;exitY=1;exitDx=0;exitDy=0;entryX=0.5;entryY=0;entryDx=0;entryDy=0;strokeColor=#E07A5F;fontColor=#393C56;labelBackgroundColor=#F4F1DE;" parent="1" source="XKVMX29ZRd29AsLRONiJ-37" target="XKVMX29ZRd29AsLRONiJ-41" edge="1">
          <mxGeometry width="50" height="50" relative="1" as="geometry">
            <mxPoint x="579.4974746830585" y="375.6066017177982" as="sourcePoint" />
            <mxPoint x="637.5" y="410" as="targetPoint" />
          </mxGeometry>
        </mxCell>
        <mxCell id="XKVMX29ZRd29AsLRONiJ-44" value="Falso" style="text;html=1;strokeColor=none;fillColor=none;align=center;verticalAlign=middle;whiteSpace=wrap;rounded=0;fontColor=#393C56;" parent="1" vertex="1">
          <mxGeometry x="613" y="360" width="60" height="20" as="geometry" />
        </mxCell>
        <mxCell id="XKVMX29ZRd29AsLRONiJ-45" value="Verdadero" style="text;html=1;strokeColor=none;fillColor=none;align=center;verticalAlign=middle;whiteSpace=wrap;rounded=0;fontColor=#393C56;" parent="1" vertex="1">
          <mxGeometry x="390" y="365" width="60" height="20" as="geometry" />
        </mxCell>
      </root>
    </mxGraphModel>
  </diagram>
</mxfile>
